<svg width="41" height="41" viewBox="0 0 41 41" fill="none" xmlns="http://www.w3.org/2000/svg">
<path d="M37.4253 20.6396C37.4253 11.3632 29.9052 3.84326 20.6289 3.84326C11.3525 3.84326 3.83252 11.3632 3.83252 20.6396C3.83252 23.3611 4.48148 25.991 5.70466 28.3529L3.91138 34.7739C3.80815 35.1431 3.8081 35.534 3.91131 35.9035C4.22317 37.0203 5.38135 37.6728 6.49817 37.3609L12.9242 35.5682C15.284 36.7887 17.9107 37.436 20.6289 37.436C21.0703 37.436 21.5077 37.419 21.9405 37.3856C21.2433 36.6498 20.6475 35.817 20.1754 34.9095C17.8729 34.8378 15.6623 34.2198 13.6871 33.1185L13.2344 32.866L6.53835 34.7341L8.40731 28.0421L8.15427 27.5891C6.97809 25.4827 6.35197 23.108 6.35197 20.6396C6.35197 12.7547 12.744 6.36272 20.6289 6.36272C28.3621 6.36272 34.6592 12.5111 34.8987 20.1861C35.8062 20.6583 36.639 21.254 37.3749 21.9513C37.4083 21.5184 37.4253 21.081 37.4253 20.6396ZM22.0347 28.1506C23.885 27.6928 24.9842 25.7891 24.4554 23.9579L24.1227 22.8054C24.8606 22.1631 25.7002 21.6422 26.6133 21.2722L27.4511 22.1538C28.7751 23.5471 30.9959 23.5476 32.3205 22.1547L33.1487 21.2838C34.0635 21.658 34.9041 22.1841 35.6416 22.8319L35.3289 23.8916C34.785 25.7351 35.8958 27.6583 37.7644 28.1083L38.6697 28.3263C38.752 28.8307 38.795 29.3489 38.795 29.8776C38.795 30.3829 38.7559 30.8787 38.6803 31.3619L37.6999 31.6045C35.8498 32.0623 34.7506 33.966 35.2792 35.7973L35.6119 36.9494C34.8741 37.5917 34.0342 38.1127 33.1212 38.4827L32.2835 37.6013C30.9597 36.208 28.7387 36.2077 27.4141 37.6004L26.5855 38.4717C25.671 38.0976 24.8303 37.5715 24.0928 36.9239L24.4057 35.8635C24.9498 34.0201 23.8388 32.0968 21.9702 31.6468L21.0642 31.4286C20.9818 30.9244 20.9389 30.4062 20.9389 29.8776C20.9389 29.3724 20.9781 28.8766 21.0535 28.3933L22.0347 28.1506ZM32.3019 29.8776C32.3019 28.4862 31.2118 27.3582 29.8669 27.3582C28.5222 27.3582 27.4321 28.4862 27.4321 29.8776C27.4321 31.269 28.5222 32.3971 29.8669 32.3971C31.2118 32.3971 32.3019 31.269 32.3019 29.8776Z" fill="#389731"/>
</svg>
