<svg width="41" height="42" viewBox="0 0 41 42" fill="none" xmlns="http://www.w3.org/2000/svg">
<path d="M7.3499 9.95264C7.90636 7.64154 9.97418 6.0127 12.3517 6.0127H28.9092C31.2867 6.0127 33.3545 7.64154 33.911 9.95264L37.2568 23.8489C38.1599 27.5996 35.3171 31.2072 31.4588 31.2072H18.1114V28.6878H31.4588C33.6869 28.6878 35.3284 26.6044 34.807 24.4386L31.461 10.5423C31.1772 9.3632 30.1222 8.53215 28.9092 8.53215H12.3517C11.1387 8.53215 10.0837 9.3632 9.79975 10.5423L8.66608 15.2507H6.7721C6.53034 15.2507 6.2929 15.2693 6.06116 15.3051L7.3499 9.95264ZM18.0925 35.4063H29.4498C30.1457 35.4063 30.7097 34.8423 30.7097 34.1466C30.7097 33.4509 30.1457 32.8869 29.4498 32.8869H18.1114V34.9864C18.1114 35.128 18.1051 35.2681 18.0925 35.4063ZM10.1321 25.3285C11.2918 25.3285 12.232 24.3886 12.232 23.229C12.232 22.0694 11.2918 21.1294 10.1321 21.1294C8.97239 21.1294 8.03225 22.0694 8.03225 23.229C8.03225 24.3886 8.97239 25.3285 10.1321 25.3285ZM3.83252 19.8697C3.83252 18.2463 5.14872 16.9303 6.77234 16.9303H13.4919C15.1155 16.9303 16.4317 18.2463 16.4317 19.8697V34.9864C16.4317 36.6098 15.1155 37.9258 13.4919 37.9258H6.77232C5.14872 37.9258 3.83252 36.6098 3.83252 34.9864V19.8697ZM6.77234 19.4498C6.54038 19.4498 6.35236 19.6377 6.35236 19.8697V34.9864C6.35236 35.2184 6.54038 35.4063 6.77232 35.4063H13.4919C13.7238 35.4063 13.9119 35.2184 13.9119 34.9864V19.8697C13.9119 19.6377 13.7238 19.4498 13.4919 19.4498H6.77234Z" fill="#389731"/>
</svg>
