<svg width="40" height="40" viewBox="0 0 40 40" fill="none" xmlns="http://www.w3.org/2000/svg">
<path d="M6.30261 5.78945C6.07421 5.78945 5.88906 5.97461 5.88906 6.203V26.8809C5.88906 27.1093 6.07421 27.2944 6.30261 27.2944H14.9873V29.7758H6.30261C4.7038 29.7758 3.40771 28.4797 3.40771 26.8809V6.203C3.40771 4.60419 4.7038 3.30811 6.30261 3.30811H15.4009C16.9997 3.30811 18.2958 4.60419 18.2958 6.203V11.1657C18.2958 11.3941 18.4809 11.5792 18.7093 11.5792H20.3636C21.9624 11.5792 23.2584 12.8753 23.2584 14.4741V14.5929L20.7771 16.9088V14.4741C20.7771 14.2457 20.592 14.0606 20.3636 14.0606H18.7093C17.1105 14.0606 15.8144 12.7645 15.8144 11.1657V6.203C15.8144 5.97461 15.6293 5.78945 15.4009 5.78945H6.30261ZM10.0246 9.51146C10.0246 10.1967 9.46915 10.7521 8.78396 10.7521C8.09876 10.7521 7.54328 10.1967 7.54328 9.51146C7.54328 8.82626 8.09876 8.27079 8.78396 8.27079C9.46915 8.27079 10.0246 8.82626 10.0246 9.51146ZM8.78396 15.7148C9.46915 15.7148 10.0246 15.1593 10.0246 14.4741C10.0246 13.7889 9.46915 13.2335 8.78396 13.2335C8.09876 13.2335 7.54328 13.7889 7.54328 14.4741C7.54328 15.1593 8.09876 15.7148 8.78396 15.7148ZM10.0246 19.4368C10.0246 20.122 9.46915 20.6775 8.78396 20.6775C8.09876 20.6775 7.54328 20.122 7.54328 19.4368C7.54328 18.7516 8.09876 18.1962 8.78396 18.1962C9.46915 18.1962 10.0246 18.7516 10.0246 19.4368ZM12.9195 10.7521C13.6047 10.7521 14.1602 10.1967 14.1602 9.51146C14.1602 8.82626 13.6047 8.27079 12.9195 8.27079C12.2343 8.27079 11.6789 8.82626 11.6789 9.51146C11.6789 10.1967 12.2343 10.7521 12.9195 10.7521ZM14.1602 14.4741C14.1602 15.1593 13.6047 15.7148 12.9195 15.7148C12.2343 15.7148 11.6789 15.1593 11.6789 14.4741C11.6789 13.7889 12.2343 13.2335 12.9195 13.2335C13.6047 13.2335 14.1602 13.7889 14.1602 14.4741ZM12.9195 20.6775C13.6047 20.6775 14.1602 20.122 14.1602 19.4368C14.1602 18.7516 13.6047 18.1962 12.9195 18.1962C12.2343 18.1962 11.6789 18.7516 11.6789 19.4368C11.6789 20.122 12.2343 20.6775 12.9195 20.6775ZM28.5422 15.6132C27.4299 14.5751 25.7039 14.5751 24.5916 15.6132L17.5611 22.1749C16.9745 22.7225 16.6415 23.4889 16.6415 24.2913V33.9113C16.6415 35.2817 17.7525 36.3927 19.1229 36.3927H22.4313C23.8017 36.3927 24.9127 35.2817 24.9127 33.9113V29.7764H28.2211V33.9113C28.2211 35.2817 29.3321 36.3927 30.7025 36.3927H34.0109C35.3813 36.3927 36.4923 35.2817 36.4923 33.9113V24.2913C36.4923 23.4889 36.1593 22.7225 35.5727 22.1749L28.5422 15.6132ZM26.2847 17.4271C26.4437 17.2789 26.6901 17.2789 26.8491 17.4271L33.8796 23.9889C33.9633 24.0672 34.0109 24.1767 34.0109 24.2913V33.9113H30.7025V29.7764C30.7025 28.4061 29.5915 27.2951 28.2211 27.2951H24.9127C23.5423 27.2951 22.4313 28.4061 22.4313 29.7764V33.9113H19.1229V24.2913C19.1229 24.1767 19.1705 24.0672 19.2542 23.9889L26.2847 17.4271Z" fill="#298422"/>
</svg>
