<svg width="41" height="41" viewBox="0 0 41 41" fill="none" xmlns="http://www.w3.org/2000/svg">
<path d="M11.3001 4.15869C9.24453 4.15869 7.57812 5.82509 7.57812 7.8807V33.5212C7.57812 35.5768 9.24453 37.2432 11.3001 37.2432H23.7075C25.7515 37.2432 27.4107 35.5958 27.4295 33.5563L27.4299 33.5214V31.0401C27.4299 30.3549 26.8745 29.7994 26.1892 29.7994C25.4385 29.7994 24.9662 29.5974 24.6395 29.3349C24.2954 29.0581 24.0117 28.6313 23.7942 28.0294C23.3432 26.7804 23.2944 25.1336 23.2943 23.5959C23.2943 23.2817 23.175 22.9792 22.9606 22.7496C22.8344 22.6143 22.7497 22.5226 22.6887 22.4568C22.5391 22.2952 22.532 22.2875 22.4066 22.1694C22.2844 22.0545 21.911 21.698 20.4497 20.2373C19.6747 19.4626 19.2449 18.807 19.1043 18.3063C19.0399 18.0769 19.0432 17.9057 19.0785 17.7679C19.1136 17.6312 19.1996 17.4517 19.4171 17.2341C19.6345 17.0166 19.8136 16.9311 19.9494 16.8963C20.0862 16.8612 20.257 16.858 20.4859 16.9225C20.9863 17.0637 21.6414 17.4943 22.4167 18.2701C23.3093 19.1632 24.1576 20.0021 24.9174 20.7536C26.1738 21.9959 27.1897 23.0005 27.7637 23.6156C28.2312 24.1165 29.0163 24.1434 29.5172 23.6759C30.0181 23.2084 30.0452 22.4234 29.5777 21.9225C29.1069 21.4181 28.3504 20.6611 27.4292 19.7481L27.429 14.1838L32.1293 18.8841C32.8273 19.5821 33.2195 20.5288 33.2195 21.5158V36.0026C33.2195 36.6878 33.775 37.2432 34.4602 37.2432C35.1453 37.2432 35.7008 36.6878 35.7008 36.0026V21.5158C35.7008 19.8707 35.0472 18.2929 33.8838 17.1295L27.429 10.6746L27.4289 7.8806C27.4289 5.82503 25.7626 4.15869 23.7068 4.15869H11.3001ZM21.4604 28.8722C21.6205 29.3157 21.8271 29.7559 22.0953 30.1661C20.8472 30.7669 19.986 32.0437 19.986 33.5216V34.7619H15.0232V33.5216C15.0232 31.4659 13.3568 29.7996 11.3012 29.7996H10.0595V11.6022H11.3012C13.3568 11.6022 15.0232 9.93577 15.0232 7.88016V6.64003H19.986V7.88016C19.986 9.93577 21.6523 11.6022 23.708 11.6022H24.9477L24.9478 17.2901C24.6923 17.0359 24.4331 16.7775 24.1719 16.5161C23.2933 15.637 22.2723 14.8482 21.1593 14.5344C20.5817 14.3714 19.9613 14.3318 19.3337 14.4925C18.96 14.5882 18.6108 14.748 18.2876 14.9636C18.0314 14.9289 17.77 14.911 17.5043 14.911C14.3066 14.911 11.7144 17.5032 11.7144 20.7008C11.7144 23.8984 14.3066 26.4906 17.5043 26.4906C18.7516 26.4906 19.9069 26.0961 20.8521 25.4251C20.9132 26.5569 21.068 27.7859 21.4604 28.8722ZM14.1958 20.7008C14.1958 19.186 15.2139 17.9088 16.6032 17.5166C16.5339 18.0185 16.5846 18.5114 16.7153 18.9769C17.028 20.0909 17.8158 21.113 18.6955 21.9923C19.1615 22.4581 19.5193 22.8139 19.7954 23.0875C19.2011 23.6584 18.3936 24.0093 17.5043 24.0093C15.677 24.0093 14.1958 22.5281 14.1958 20.7008ZM10.0595 7.8807C10.0595 7.19551 10.6149 6.64003 11.3001 6.64003H12.5419V7.88016C12.5419 8.56537 11.9864 9.12083 11.3012 9.12083H10.0595V7.8807ZM22.4673 6.64003H23.7068C24.392 6.64003 24.9475 7.19547 24.9475 7.88067L24.9477 9.12083H23.708C23.0227 9.12083 22.4673 8.56537 22.4673 7.88016V6.64003ZM24.9482 32.2809V33.5212C24.9483 34.2064 24.3929 34.7619 23.7075 34.7619H22.4673V33.5216C22.4673 32.8362 23.0227 32.2809 23.708 32.2809H24.9482ZM12.5419 34.7619H11.3001C10.6149 34.7619 10.0595 34.2064 10.0595 33.5212V32.2809H11.3012C11.9864 32.2809 12.5419 32.8362 12.5419 33.5216V34.7619Z" fill="#389731"/>
</svg>
