<svg width="40" height="41" viewBox="0 0 40 41" fill="none" xmlns="http://www.w3.org/2000/svg">
<path d="M19.8509 3.81055C28.9868 3.81055 36.3932 11.2168 36.3932 20.3528C36.3932 29.4888 28.9868 36.8951 19.8509 36.8951C17.1738 36.8951 14.5868 36.2576 12.2627 35.0556L5.93392 36.8212C4.83399 37.1283 3.69333 36.4857 3.38619 35.3858C3.28454 35.0219 3.28459 34.6369 3.38626 34.2733L5.15241 27.9494C3.94774 25.6232 3.30859 23.0332 3.30859 20.3528C3.30859 11.2168 10.7148 3.81055 19.8509 3.81055ZM19.8509 6.29189C12.0852 6.29189 5.78994 12.5872 5.78994 20.3528C5.78994 22.7839 6.40658 25.1226 7.56497 27.1972L7.81418 27.6433L5.97349 34.2341L12.5682 32.3943L13.0141 32.6429C15.0868 33.7986 17.4228 34.4138 19.8509 34.4138C27.6165 34.4138 33.9118 28.1184 33.9118 20.3528C33.9118 12.5872 27.6165 6.29189 19.8509 6.29189ZM19.8509 26.1426C20.7645 26.1426 21.5051 26.8832 21.5051 27.7969C21.5051 28.7105 20.7645 29.4511 19.8509 29.4511C18.9372 29.4511 18.1966 28.7105 18.1966 27.7969C18.1966 26.8832 18.9372 26.1426 19.8509 26.1426ZM19.8509 11.6681C22.3633 11.6681 24.4 13.7048 24.4 16.2173C24.4 17.8893 23.9079 18.821 22.6612 20.1189L22.3823 20.4029C21.3536 21.4317 21.0915 21.8686 21.0915 22.8342C21.0915 23.5193 20.5361 24.0748 19.8509 24.0748C19.1657 24.0748 18.6102 23.5193 18.6102 22.8342C18.6102 21.1621 19.1023 20.2304 20.349 18.9325L20.6279 18.6485C21.6566 17.6197 21.9187 17.1828 21.9187 16.2173C21.9187 15.0752 20.993 14.1495 19.8509 14.1495C18.7803 14.1495 17.8997 14.9631 17.7938 16.0058L17.7831 16.2173C17.7831 16.9025 17.2276 17.4579 16.5424 17.4579C15.8572 17.4579 15.3017 16.9025 15.3017 16.2173C15.3017 13.7048 17.3384 11.6681 19.8509 11.6681Z" fill="#389731"/>
</svg>
