<svg width="41" height="41" viewBox="0 0 41 41" fill="none" xmlns="http://www.w3.org/2000/svg">
<path d="M20.0954 4.82782C20.2543 4.75846 20.4258 4.72266 20.5992 4.72266C20.7727 4.72266 20.9442 4.75846 21.1031 4.82782C27.3145 7.54279 33.2394 10.871 38.7897 14.7629C38.9853 14.9 39.1379 15.09 39.2296 15.3106C39.3213 15.5312 39.3484 15.7733 39.3078 16.0087C39.2671 16.2441 39.1603 16.4631 38.9999 16.6402C38.8395 16.8172 38.632 16.945 38.4017 17.0085C32.6395 18.6 27.0639 20.8027 21.77 23.5793L21.7649 23.5826C21.5734 23.6834 21.3836 23.7825 21.1938 23.885C21.0112 23.9826 20.8072 24.0337 20.6001 24.0337C20.393 24.0337 20.189 23.9826 20.0063 23.885C17.7357 22.6732 15.4115 21.5647 13.0409 20.5627V20.1864C13.0409 19.9664 13.1534 19.7699 13.3298 19.6641C15.865 18.1277 18.4732 16.7152 21.1451 15.4314C21.4463 15.2866 21.6776 15.0281 21.7881 14.7128C21.8987 14.3975 21.8795 14.0512 21.7347 13.7501C21.5899 13.4489 21.3314 13.2176 21.0161 13.1071C20.7008 12.9965 20.3545 13.0157 20.0534 13.1605C17.3085 14.4795 14.6291 15.9307 12.0247 17.5091C11.6542 17.7339 11.3345 18.0333 11.0861 18.3885C10.8377 18.7436 10.666 19.1465 10.5819 19.5717C8.03087 18.5901 5.43328 17.7341 2.79846 17.0069C2.56817 16.9433 2.36071 16.8155 2.20029 16.6385C2.03987 16.4615 1.93309 16.2425 1.89242 16.0071C1.85174 15.7716 1.87885 15.5295 1.97057 15.3089C2.0623 15.0883 2.21486 14.8984 2.41046 14.7612C7.9603 10.87 13.8846 7.54239 20.0954 4.82782Z" fill="#389731"/>
<path d="M22.3793 26.1056C26.5049 23.9014 30.8129 22.057 35.2554 20.593C35.4804 22.968 35.6249 25.3682 35.6837 27.7886C35.6902 28.0423 35.6199 28.292 35.482 28.5051C35.3442 28.7182 35.1451 28.8847 34.911 28.9828C30.1497 30.9713 25.5909 33.4136 21.2976 36.2758C21.0907 36.4137 20.8475 36.4873 20.5988 36.4873C20.3502 36.4873 20.107 36.4137 19.9001 36.2758C15.6074 33.4137 11.0491 30.9714 6.28834 28.9828C6.0542 28.8851 5.85501 28.719 5.71685 28.5062C5.57869 28.2934 5.508 28.0439 5.51403 27.7902C5.57282 25.3682 5.71726 22.9697 5.94234 20.5913C7.48928 21.1019 9.01607 21.6562 10.521 22.2542V24.3873C10.1581 24.5964 9.85306 24.8927 9.63345 25.2493C9.41384 25.6059 9.2866 26.0117 9.26326 26.4299C9.23992 26.8481 9.3212 27.2655 9.49975 27.6444C9.6783 28.0232 9.94849 28.3516 10.2859 28.5998C10.1347 29.2381 9.913 29.8646 9.61906 30.4642C10.3783 30.822 11.1324 31.1932 11.8799 31.5728C12.3012 30.7158 12.6121 29.8088 12.8053 28.8736C13.2301 28.6847 13.5943 28.3821 13.8577 27.999C14.1211 27.616 14.2734 27.1676 14.2977 26.7034C14.3221 26.2392 14.2175 25.7773 13.9956 25.3688C13.7737 24.9603 13.4432 24.6212 13.0405 24.389V23.3056C15.0025 24.1627 16.93 25.0967 18.8184 26.1056C19.3663 26.3982 19.9778 26.5512 20.5988 26.5512C21.2199 26.5512 21.8314 26.3982 22.3793 26.1056Z" fill="#389731"/>
<path d="M7.93798 32.8055C8.64343 32.1017 9.20275 31.3106 9.61762 30.4624C10.3785 30.8218 11.1326 31.193 11.8801 31.5743C11.3305 32.6906 10.6007 33.7087 9.72007 34.5876C9.48127 34.8101 9.16542 34.9312 8.83907 34.9255C8.51271 34.9197 8.20133 34.7875 7.97053 34.5567C7.73972 34.3259 7.60752 34.0145 7.60176 33.6882C7.596 33.3618 7.71714 33.046 7.93966 32.8072L7.93798 32.8055Z" fill="#389731"/>
</svg>
