<svg width="41" height="41" viewBox="0 0 41 41" fill="none" xmlns="http://www.w3.org/2000/svg">
<path d="M35.6999 10.7605C35.6999 7.79129 33.2929 5.38428 30.3237 5.38428H11.3001C8.33085 5.38428 5.92383 7.79129 5.92383 10.7605V29.7841C5.92383 32.7533 8.33085 35.1604 11.3001 35.1604H19.1577V32.679H11.3001C9.70126 32.679 8.40517 31.3829 8.40517 29.7841V14.4825H33.2186V19.0502C34.1569 19.1347 35.0131 19.5043 35.6999 20.0715V10.7605ZM11.3001 7.86562H30.3237C31.9225 7.86562 33.2186 9.16171 33.2186 10.7605V12.0012H8.40517V10.7605C8.40517 9.16171 9.70126 7.86562 11.3001 7.86562ZM24.1203 25.235H23.2932C21.9229 25.235 20.8119 26.346 20.8119 27.7164V30.1977H24.9474V29.7841C24.9474 29.099 25.5029 28.5435 26.1881 28.5435C26.8733 28.5435 27.4288 29.099 27.4288 29.7841V30.1977H32.3915V29.7841C32.3915 29.099 32.947 28.5435 33.6321 28.5435C34.3173 28.5435 34.8728 29.099 34.8728 29.7841V30.1977H39.0084V27.7164C39.0084 26.346 37.8974 25.235 36.527 25.235H35.6999V23.5808C35.6999 21.982 34.4038 20.6859 32.805 20.6859H27.0152C25.4164 20.6859 24.1203 21.982 24.1203 23.5808V25.235ZM26.6017 23.5808C26.6017 23.3523 26.7868 23.1672 27.0152 23.1672H32.805C33.0335 23.1672 33.2186 23.3523 33.2186 23.5808V25.235H26.6017V23.5808ZM20.8119 35.9875V32.679H24.9474V33.9197C24.9474 34.6049 25.5029 35.1604 26.1881 35.1604C26.8733 35.1604 27.4288 34.6049 27.4288 33.9197V32.679H32.3915V33.9197C32.3915 34.6049 32.947 35.1604 33.6321 35.1604C34.3173 35.1604 34.8728 34.6049 34.8728 33.9197V32.679H39.0084V35.9875C39.0084 37.3579 37.8974 38.4688 36.527 38.4688H23.2932C21.9229 38.4688 20.8119 37.3579 20.8119 35.9875Z" fill="#389731"/>
</svg>
