<svg width="41" height="41" viewBox="0 0 41 41" fill="none" xmlns="http://www.w3.org/2000/svg">
<path fill-rule="evenodd" clip-rule="evenodd" d="M20.6291 4.32471C20.9632 4.32471 21.2836 4.45743 21.5199 4.69367C21.7561 4.92992 21.8889 5.25033 21.8889 5.58443V6.85424C27.0542 6.93149 32.2008 7.49384 37.2609 8.53388C37.5673 8.59609 37.8397 8.77006 38.025 9.02194C38.2103 9.27382 38.2953 9.58562 38.2634 9.89669C38.2316 10.2078 38.0852 10.4959 37.8527 10.705C37.6202 10.9141 37.3183 11.0293 37.0056 11.0281H33.784L37.9395 28.0328C38.0061 28.3045 37.9803 28.5907 37.8662 28.8461C37.7522 29.1016 37.5564 29.3118 37.3096 29.4437C35.6661 30.3229 33.8306 30.7817 31.9667 30.779C30.1028 30.7817 28.2672 30.3229 26.6238 29.4437C26.377 29.3118 26.1812 29.1016 26.0671 28.8461C25.9531 28.5907 25.9273 28.3045 25.9939 28.0328L30.1493 11.0281H21.8889V33.3337C24.0606 33.4614 26.1451 33.9098 28.0985 34.6371C28.3755 34.7401 28.6075 34.9372 28.7539 35.1939C28.9002 35.4506 28.9517 35.7506 28.8993 36.0414C28.8468 36.3323 28.6938 36.5954 28.467 36.7848C28.2401 36.9743 27.9539 37.0779 27.6584 37.0776H13.5999C13.3043 37.0779 13.0181 36.9743 12.7913 36.7848C12.5644 36.5954 12.4114 36.3323 12.359 36.0414C12.3065 35.7506 12.358 35.4506 12.5044 35.1939C12.6508 34.9372 12.8828 34.7401 13.1598 34.6371C15.1115 33.9098 17.1976 33.4614 19.3694 33.3354V11.0265H11.109L15.2644 28.0311C15.331 28.3028 15.3052 28.589 15.1912 28.8445C15.0771 29.0999 14.8813 29.3102 14.6345 29.442C12.9912 30.3218 11.1556 30.7811 9.29159 30.779C7.4277 30.7817 5.59214 30.3229 3.94866 29.4437C3.70191 29.3118 3.50607 29.1016 3.39202 28.8461C3.27797 28.5907 3.25221 28.3045 3.3188 28.0328L7.47422 11.0281H4.25268C3.93998 11.0293 3.63803 10.9141 3.40555 10.705C3.17307 10.4959 3.02667 10.2078 2.99483 9.89669C2.96299 9.58562 3.04798 9.27382 3.23328 9.02194C3.41857 8.77006 3.69093 8.59609 3.99737 8.53388C9.05748 7.49383 14.2041 6.93148 19.3694 6.85424V5.58443C19.3694 5.25033 19.5021 4.92992 19.7384 4.69367C19.9746 4.45743 20.295 4.32471 20.6291 4.32471ZM28.8224 27.072L31.9667 14.2027L35.111 27.072H28.8224ZM12.4359 27.072L9.29159 14.2027L6.14731 27.072H12.4359Z" fill="#389731"/>
</svg>
