<svg width="35" height="35" viewBox="0 0 35 35" fill="none" xmlns="http://www.w3.org/2000/svg">
<path d="M10.9546 11.3305C10.2828 11.7755 9.47706 12.0347 8.61084 12.0347C6.26363 12.0347 4.36084 10.1319 4.36084 7.78467C4.36084 5.43746 6.26363 3.53467 8.61084 3.53467C10.958 3.53467 12.8608 5.43746 12.8608 7.78467C12.8608 8.65089 12.6017 9.45658 12.1567 10.1285L15.6171 13.5888C16.2889 13.1438 17.0946 12.8847 17.9608 12.8847C18.827 12.8847 19.6328 13.1438 20.3046 13.5888L23.765 10.1284C23.3199 9.45658 23.0608 8.65089 23.0608 7.78467C23.0608 5.43746 24.9637 3.53467 27.3108 3.53467C29.658 3.53467 31.5608 5.43746 31.5608 7.78467C31.5608 10.1319 29.658 12.0347 27.3108 12.0347C26.4447 12.0347 25.6389 11.7755 24.9671 11.3305L21.5067 14.7909C21.9518 15.4628 22.2108 16.2685 22.2108 17.1347C22.2108 18.0008 21.9518 18.8066 21.5067 19.4785L24.9671 22.9388C25.6389 22.4937 26.4447 22.2347 27.3108 22.2347C29.658 22.2347 31.5608 24.1375 31.5608 26.4847C31.5608 28.8319 29.658 30.7347 27.3108 30.7347C24.9637 30.7347 23.0608 28.8319 23.0608 26.4847C23.0608 25.6185 23.3199 24.8127 23.765 24.1409L20.3046 20.6805C19.6328 21.1256 18.827 21.3847 17.9608 21.3847C17.0946 21.3847 16.2889 21.1256 15.6171 20.6805L12.1567 24.1409C12.6017 24.8127 12.8608 25.6185 12.8608 26.4847C12.8608 28.8319 10.958 30.7347 8.61084 30.7347C6.26363 30.7347 4.36084 28.8319 4.36084 26.4847C4.36084 24.1375 6.26363 22.2347 8.61084 22.2347C9.47706 22.2347 10.2828 22.4937 10.9546 22.9388L14.415 19.4785C13.97 18.8066 13.7108 18.0008 13.7108 17.1347C13.7108 16.2685 13.97 15.4628 14.415 14.7909L10.9546 11.3305ZM11.1608 7.78467C11.1608 6.37634 10.0192 5.23467 8.61084 5.23467C7.20251 5.23467 6.06084 6.37634 6.06084 7.78467C6.06084 9.193 7.20251 10.3347 8.61084 10.3347C10.0192 10.3347 11.1608 9.193 11.1608 7.78467ZM29.8608 7.78467C29.8608 6.37634 28.7191 5.23467 27.3108 5.23467C25.9026 5.23467 24.7608 6.37634 24.7608 7.78467C24.7608 9.193 25.9026 10.3347 27.3108 10.3347C28.7191 10.3347 29.8608 9.193 29.8608 7.78467ZM8.61084 29.0347C10.0192 29.0347 11.1608 27.893 11.1608 26.4847C11.1608 25.0764 10.0192 23.9347 8.61084 23.9347C7.20251 23.9347 6.06084 25.0764 6.06084 26.4847C6.06084 27.893 7.20251 29.0347 8.61084 29.0347ZM29.8608 26.4847C29.8608 25.0764 28.7191 23.9347 27.3108 23.9347C25.9026 23.9347 24.7608 25.0764 24.7608 26.4847C24.7608 27.893 25.9026 29.0347 27.3108 29.0347C28.7191 29.0347 29.8608 27.893 29.8608 26.4847ZM20.5108 17.1347C20.5108 15.7263 19.3691 14.5847 17.9608 14.5847C16.5525 14.5847 15.4108 15.7263 15.4108 17.1347C15.4108 18.5429 16.5525 19.6847 17.9608 19.6847C19.3691 19.6847 20.5108 18.5429 20.5108 17.1347Z" fill="#389731"/>
</svg>
