<svg width="41" height="42" viewBox="0 0 41 42" fill="none" xmlns="http://www.w3.org/2000/svg">
<path d="M18.1926 5.04781C19.6 3.86101 21.6579 3.86101 23.0652 5.04783L34.4028 14.6085C35.2542 15.3266 35.7457 16.3837 35.7457 17.4976V20.0127C35.038 19.786 34.2795 19.6083 33.4867 19.4838C33.4004 19.4702 33.3136 19.4573 33.2262 19.4448V17.4976C33.2262 17.1263 33.0624 16.7739 32.7786 16.5345L21.441 6.97387C20.9719 6.57826 20.286 6.57826 19.8168 6.97387L8.4793 16.5345C8.19546 16.7739 8.03166 17.1263 8.03166 17.4976V33.1347C8.03166 33.3667 8.21966 33.5546 8.45157 33.5546H20.6289V35.2277C20.6289 35.5208 20.6622 35.8033 20.7233 36.0741H8.45157C6.8282 36.0741 5.51221 34.7581 5.51221 33.1347V17.4976C5.51221 16.3837 6.00358 15.3266 6.85511 14.6085L18.1926 5.04781ZM35.7457 21.7903C34.9937 21.5079 34.144 21.2872 33.2262 21.1429C32.4309 21.0182 31.5845 20.9508 30.7068 20.9508C26.0686 20.9508 22.3086 22.8308 22.3086 25.1499C22.3086 27.469 26.0686 29.349 30.7068 29.349C31.5845 29.349 32.4309 29.2816 33.2262 29.1567C34.144 29.0125 34.9937 28.7918 35.7457 28.5095C37.7854 27.7434 39.1049 26.5237 39.1049 25.1499C39.1049 23.7761 37.7854 22.5564 35.7457 21.7903ZM35.7457 30.2871C34.9623 30.5382 34.1152 30.7295 33.2262 30.8548C32.4156 30.9692 31.5703 31.0286 30.7068 31.0286C28.1834 31.0286 25.816 30.5209 24.0173 29.6214C23.4225 29.3241 22.8289 28.9491 22.3086 28.4952V35.2277C22.3086 35.825 22.5578 36.393 23.0073 36.9073C24.3033 38.3905 27.263 39.4268 30.7068 39.4268C35.3449 39.4268 39.1049 37.5468 39.1049 35.2277V28.4952C38.5846 28.9491 37.991 29.3241 37.3962 29.6214C36.8883 29.8754 36.3351 30.0981 35.7457 30.2871Z" fill="#389731"/>
</svg>
