<svg width="126" height="125" viewBox="0 0 126 125" fill="none" xmlns="http://www.w3.org/2000/svg">
<path d="M37.2418 41.1613C34.7717 42.7973 31.8096 43.75 28.625 43.75C19.9956 43.75 13 36.7544 13 28.125C13 19.4956 19.9956 12.5 28.625 12.5C37.2544 12.5 44.25 19.4956 44.25 28.125C44.25 31.3096 43.2973 34.2717 41.6613 36.7419L54.3831 49.4638C56.8533 47.8278 59.8154 46.875 63 46.875C66.1844 46.875 69.1469 47.8278 71.6169 49.4638L84.3388 36.7418C82.7025 34.2717 81.75 31.3096 81.75 28.125C81.75 19.4956 88.7456 12.5 97.375 12.5C106.004 12.5 113 19.4956 113 28.125C113 36.7544 106.004 43.75 97.375 43.75C94.1906 43.75 91.2281 42.7973 88.7581 41.1613L76.0363 53.8832C77.6725 56.3533 78.625 59.3154 78.625 62.5C78.625 65.6844 77.6725 68.6469 76.0363 71.1169L88.7581 83.8388C91.2281 82.2025 94.1906 81.25 97.375 81.25C106.004 81.25 113 88.2456 113 96.875C113 105.504 106.004 112.5 97.375 112.5C88.7456 112.5 81.75 105.504 81.75 96.875C81.75 93.6906 82.7025 90.7281 84.3388 88.2581L71.6169 75.5363C69.1469 77.1725 66.1844 78.125 63 78.125C59.8154 78.125 56.8533 77.1725 54.3832 75.5363L41.6613 88.2581C43.2973 90.7281 44.25 93.6906 44.25 96.875C44.25 105.504 37.2544 112.5 28.625 112.5C19.9956 112.5 13 105.504 13 96.875C13 88.2456 19.9956 81.25 28.625 81.25C31.8096 81.25 34.7717 82.2025 37.2418 83.8388L49.9638 71.1169C48.3278 68.6469 47.375 65.6844 47.375 62.5C47.375 59.3154 48.3278 56.3533 49.9638 53.8831L37.2418 41.1613ZM38 28.125C38 22.9473 33.8027 18.75 28.625 18.75C23.4473 18.75 19.25 22.9473 19.25 28.125C19.25 33.3027 23.4473 37.5 28.625 37.5C33.8027 37.5 38 33.3027 38 28.125ZM106.75 28.125C106.75 22.9473 102.553 18.75 97.375 18.75C92.1975 18.75 88 22.9473 88 28.125C88 33.3027 92.1975 37.5 97.375 37.5C102.553 37.5 106.75 33.3027 106.75 28.125ZM28.625 106.25C33.8027 106.25 38 102.053 38 96.875C38 91.6975 33.8027 87.5 28.625 87.5C23.4473 87.5 19.25 91.6975 19.25 96.875C19.25 102.053 23.4473 106.25 28.625 106.25ZM106.75 96.875C106.75 91.6975 102.553 87.5 97.375 87.5C92.1975 87.5 88 91.6975 88 96.875C88 102.053 92.1975 106.25 97.375 106.25C102.553 106.25 106.75 102.053 106.75 96.875ZM72.375 62.5C72.375 57.3223 68.1775 53.125 63 53.125C57.8223 53.125 53.625 57.3223 53.625 62.5C53.625 67.6775 57.8223 71.875 63 71.875C68.1775 71.875 72.375 67.6775 72.375 62.5Z" fill="#389731"/>
</svg>
