<svg width="125" height="125" viewBox="0 0 125 125" fill="none" xmlns="http://www.w3.org/2000/svg">
<path d="M62.4998 10.4167C91.2644 10.4167 114.583 33.7351 114.583 62.5C114.583 91.2646 91.2644 114.583 62.4998 114.583C54.0712 114.583 45.926 112.576 38.6085 108.792L18.6823 114.351C15.2192 115.318 11.6279 113.294 10.6608 109.831C10.3408 108.685 10.3409 107.473 10.661 106.329L16.2218 86.4177C12.4288 79.0937 10.4165 70.9391 10.4165 62.5C10.4165 33.7351 33.735 10.4167 62.4998 10.4167ZM62.4998 18.2292C38.0497 18.2292 18.229 38.0499 18.229 62.5C18.229 70.1542 20.1705 77.5177 23.8177 84.0495L24.6023 85.4542L18.8069 106.205L39.5704 100.412L40.9743 101.195C47.5001 104.834 54.855 106.771 62.4998 106.771C86.9498 106.771 106.771 86.95 106.771 62.5C106.771 38.0499 86.9498 18.2292 62.4998 18.2292ZM62.4998 80.7292C65.3764 80.7292 67.7082 83.0609 67.7082 85.9375C67.7082 88.8141 65.3764 91.1458 62.4998 91.1458C59.6233 91.1458 57.2915 88.8141 57.2915 85.9375C57.2915 83.0609 59.6233 80.7292 62.4998 80.7292ZM62.4998 35.1562C70.4103 35.1562 76.8227 41.5688 76.8227 49.4792C76.8227 54.7437 75.2733 57.6771 71.3483 61.7635L70.4701 62.6578C67.2311 65.8969 66.4061 67.2724 66.4061 70.3125C66.4061 72.4698 64.6571 74.2187 62.4998 74.2187C60.3425 74.2187 58.5936 72.4698 58.5936 70.3125C58.5936 65.0479 60.1431 62.1146 64.0681 58.0281L64.9462 57.1338C68.1852 53.8948 69.0103 52.5193 69.0103 49.4792C69.0103 45.8835 66.0957 42.9687 62.4998 42.9687C59.129 42.9687 56.3566 45.5306 56.0233 48.8135L55.9894 49.4792C55.9894 51.6365 54.2405 53.3854 52.0832 53.3854C49.9258 53.3854 48.1769 51.6365 48.1769 49.4792C48.1769 41.5688 54.5894 35.1562 62.4998 35.1562Z" fill="#389731"/>
</svg>
