<svg width="125" height="125" viewBox="0 0 125 125" fill="none" xmlns="http://www.w3.org/2000/svg">
<path d="M32.5522 10.4167C26.0802 10.4167 20.8335 15.6633 20.8335 22.1354V102.865C20.8335 109.336 26.0802 114.583 32.5522 114.583H71.6168C78.0522 114.583 83.2762 109.396 83.3356 102.975L83.3366 102.865V95.0526C83.3366 92.8953 81.5882 91.1463 79.4304 91.1463C77.0668 91.1463 75.5798 90.5104 74.5512 89.6838C73.4679 88.8125 72.5746 87.4687 71.8897 85.5734C70.47 81.6411 70.3163 76.4562 70.3158 71.6146C70.3158 70.6255 69.9403 69.6729 69.2653 68.95C68.8679 68.5239 68.6012 68.2354 68.409 68.0281C67.9382 67.5193 67.9158 67.4953 67.521 67.1234C67.1361 66.7614 65.9606 65.639 61.3595 61.0401C58.9194 58.601 57.5663 56.537 57.1236 54.9604C56.921 54.238 56.9314 53.6989 57.0423 53.2651C57.1528 52.8349 57.4236 52.2698 58.1085 51.5846C58.7929 50.8998 59.3569 50.6305 59.7845 50.521C60.2153 50.4106 60.7528 50.4003 61.4736 50.6036C63.0491 51.0481 65.1116 52.4036 67.5528 54.8463C70.3632 57.6583 73.034 60.2995 75.4262 62.6656C79.3819 66.5771 82.5804 69.7401 84.3877 71.6765C85.8595 73.2536 88.3314 73.3385 89.9085 71.8667C91.4856 70.3948 91.571 67.9229 90.0991 66.3458C88.6168 64.7578 86.2351 62.3745 83.3345 59.5L83.334 41.9808L98.133 56.7797C100.33 58.9771 101.565 61.9578 101.565 65.0656V110.677C101.565 112.834 103.314 114.583 105.472 114.583C107.629 114.583 109.378 112.834 109.378 110.677V65.0656C109.378 59.8859 107.32 54.9182 103.657 51.2551L83.334 30.932L83.3335 22.1351C83.3335 15.6631 78.0871 10.4167 71.6147 10.4167H32.5522ZM64.5418 88.2271C65.046 89.6234 65.6965 91.0094 66.5408 92.301C62.6111 94.1927 59.8996 98.2125 59.8996 102.866V106.771H44.2744V102.866C44.2744 96.3932 39.0277 91.1469 32.5556 91.1469H28.646V33.8524H32.5556C39.0277 33.8524 44.2744 28.6058 44.2744 22.1337V18.2292H59.8996V22.1337C59.8996 28.6058 65.146 33.8524 71.6184 33.8524H75.5215L75.522 51.7609C74.7174 50.9604 73.9012 50.1468 73.0788 49.3239C70.3127 46.5561 67.0981 44.0726 63.5939 43.0845C61.7752 42.5715 59.822 42.4467 57.846 42.9527C56.6694 43.254 55.57 43.7572 54.5522 44.4358C53.7455 44.3267 52.9226 44.2704 52.0861 44.2704C42.0182 44.2704 33.8567 52.4318 33.8567 62.4995C33.8567 72.5672 42.0182 80.7286 52.0861 80.7286C56.0132 80.7286 59.6507 79.4864 62.6267 77.3739C62.8189 80.9375 63.3064 84.8068 64.5418 88.2271ZM41.6692 62.4995C41.6692 57.7302 44.8747 53.7088 49.249 52.4739C49.0308 54.0542 49.1904 55.6062 49.6019 57.0719C50.5866 60.5792 53.0668 63.7974 55.8366 66.5656C57.3038 68.0323 58.4304 69.1526 59.2996 70.014C57.4283 71.8114 54.8861 72.9161 52.0861 72.9161C46.3329 72.9161 41.6692 68.2526 41.6692 62.4995ZM28.646 22.1354C28.646 19.9781 30.3949 18.2292 32.5522 18.2292H36.4619V22.1337C36.4619 24.2911 34.713 26.0399 32.5556 26.0399H28.646V22.1354ZM67.7121 18.2292H71.6147C73.772 18.2292 75.521 19.978 75.521 22.1353L75.5215 26.0399H71.6184C69.4606 26.0399 67.7121 24.2911 67.7121 22.1337V18.2292ZM75.5231 98.9594V102.865C75.5236 105.022 73.7746 106.771 71.6168 106.771H67.7121V102.866C67.7121 100.708 69.4606 98.9594 71.6184 98.9594H75.5231ZM36.4619 106.771H32.5522C30.3949 106.771 28.646 105.022 28.646 102.865V98.9594H32.5556C34.713 98.9594 36.4619 100.708 36.4619 102.866V106.771Z" fill="#389731"/>
</svg>
