<svg width="125" height="125" viewBox="0 0 125 125" fill="none" xmlns="http://www.w3.org/2000/svg">
<g id="Frame">
<path id="Vector" d="M19.5311 18.2292C18.812 18.2292 18.229 18.8121 18.229 19.5312V84.6354C18.229 85.3547 18.812 85.9375 19.5311 85.9375H46.8748V93.75H19.5311C14.4972 93.75 10.4165 89.6693 10.4165 84.6354V19.5312C10.4165 14.4974 14.4972 10.4167 19.5311 10.4167H48.1769C53.2108 10.4167 57.2915 14.4974 57.2915 19.5312V35.1562C57.2915 35.8754 57.8743 36.4583 58.5936 36.4583H63.8019C68.8358 36.4583 72.9165 40.5391 72.9165 45.5729V45.9468L65.104 53.2385V45.5729C65.104 44.8538 64.5212 44.2708 63.8019 44.2708H58.5936C53.5597 44.2708 49.479 40.1901 49.479 35.1562V19.5312C49.479 18.8121 48.896 18.2292 48.1769 18.2292H19.5311ZM31.2498 29.9479C31.2498 32.1052 29.5009 33.8542 27.3436 33.8542C25.1862 33.8542 23.4373 32.1052 23.4373 29.9479C23.4373 27.7906 25.1862 26.0417 27.3436 26.0417C29.5009 26.0417 31.2498 27.7906 31.2498 29.9479ZM27.3436 49.4792C29.5009 49.4792 31.2498 47.7302 31.2498 45.5729C31.2498 43.4156 29.5009 41.6667 27.3436 41.6667C25.1862 41.6667 23.4373 43.4156 23.4373 45.5729C23.4373 47.7302 25.1862 49.4792 27.3436 49.4792ZM31.2498 61.1979C31.2498 63.3552 29.5009 65.1042 27.3436 65.1042C25.1862 65.1042 23.4373 63.3552 23.4373 61.1979C23.4373 59.0406 25.1862 57.2917 27.3436 57.2917C29.5009 57.2917 31.2498 59.0406 31.2498 61.1979ZM40.3644 33.8542C42.5218 33.8542 44.2707 32.1052 44.2707 29.9479C44.2707 27.7906 42.5218 26.0417 40.3644 26.0417C38.2071 26.0417 36.4582 27.7906 36.4582 29.9479C36.4582 32.1052 38.2071 33.8542 40.3644 33.8542ZM44.2707 45.5729C44.2707 47.7302 42.5218 49.4792 40.3644 49.4792C38.2071 49.4792 36.4582 47.7302 36.4582 45.5729C36.4582 43.4156 38.2071 41.6667 40.3644 41.6667C42.5218 41.6667 44.2707 43.4156 44.2707 45.5729ZM40.3644 65.1042C42.5218 65.1042 44.2707 63.3552 44.2707 61.1979C44.2707 59.0406 42.5218 57.2917 40.3644 57.2917C38.2071 57.2917 36.4582 59.0406 36.4582 61.1979C36.4582 63.3552 38.2071 65.1042 40.3644 65.1042ZM89.5524 49.1591C86.0504 45.8907 80.616 45.8907 77.1139 49.1591L54.9785 69.8187C53.1316 71.5427 52.0832 73.9557 52.0832 76.4823V106.771C52.0832 111.085 55.5811 114.583 59.8957 114.583H70.3123C74.6269 114.583 78.1248 111.085 78.1248 106.771V93.7521H88.5415V106.771C88.5415 111.085 92.0394 114.583 96.354 114.583H106.771C111.085 114.583 114.583 111.085 114.583 106.771V76.4823C114.583 73.9557 113.535 71.5427 111.688 69.8187L89.5524 49.1591ZM82.4446 54.8703C82.9451 54.4036 83.7212 54.4036 84.2217 54.8703L106.357 75.5302C106.621 75.7765 106.771 76.1213 106.771 76.4823V106.771H96.354V93.7521C96.354 89.4375 92.8561 85.9396 88.5415 85.9396H78.1248C73.8102 85.9396 70.3123 89.4375 70.3123 93.7521V106.771H59.8957V76.4823C59.8957 76.1213 60.0457 75.7765 60.3092 75.5302L82.4446 54.8703Z" fill="#389731"/>
</g>
</svg>
