<svg width="125" height="125" viewBox="0 0 125 125" fill="none" xmlns="http://www.w3.org/2000/svg">
<path d="M54.9453 13.187C59.3094 9.50685 65.6906 9.50685 70.0547 13.187L105.211 42.8334C107.851 45.06 109.375 48.3381 109.375 51.792V59.5912C107.181 58.888 104.829 58.337 102.37 57.9511C102.103 57.9089 101.833 57.8688 101.562 57.8302V51.792C101.562 50.6407 101.055 49.548 100.174 48.8058L65.0182 19.1594C63.5635 17.9327 61.4365 17.9327 59.9818 19.1594L24.8256 48.8058C23.9454 49.548 23.4375 50.6407 23.4375 51.792V100.281C23.4375 101 24.0205 101.583 24.7396 101.583H62.5V106.771C62.5 107.68 62.6031 108.556 62.7927 109.395H24.7396C19.7057 109.395 15.625 105.315 15.625 100.281V51.792C15.625 48.3381 17.1487 45.06 19.7892 42.8334L54.9453 13.187ZM109.375 65.1031C107.043 64.2276 104.408 63.5433 101.562 63.0959C99.0964 62.7089 96.4719 62.5 93.75 62.5C79.3677 62.5 67.7083 68.3297 67.7083 75.5209C67.7083 82.712 79.3677 88.5417 93.75 88.5417C96.4719 88.5417 99.0964 88.3328 101.562 87.9453C104.408 87.4985 107.043 86.8141 109.375 85.9386C115.7 83.563 119.792 79.7808 119.792 75.5209C119.792 71.261 115.7 67.4787 109.375 65.1031ZM109.375 91.4506C106.946 92.2292 104.319 92.8224 101.562 93.211C99.049 93.5657 96.4276 93.75 93.75 93.75C85.9255 93.75 78.5844 92.1756 73.0068 89.3865C71.1625 88.4646 69.3219 87.3016 67.7083 85.8943V106.771C67.7083 108.623 68.4812 110.384 69.875 111.979C73.8937 116.578 83.0714 119.792 93.75 119.792C108.132 119.792 119.792 113.962 119.792 106.771V85.8943C118.178 87.3016 116.337 88.4646 114.493 89.3865C112.918 90.174 111.203 90.8646 109.375 91.4506Z" fill="#389731"/>
</svg>
