<svg width="125" height="125" viewBox="0 0 125 125" fill="none" xmlns="http://www.w3.org/2000/svg">
<path d="M21.3234 27.8422C23.049 20.6758 29.461 15.625 36.8333 15.625H88.1759C95.5483 15.625 101.96 20.6758 103.686 27.8422L114.061 70.9328C116.861 82.563 108.046 93.75 96.0821 93.75H54.6936V85.9375H96.0821C102.991 85.9375 108.081 79.4771 106.464 72.7615L96.0889 29.6708C95.2087 26.0145 91.9373 23.4375 88.1759 23.4375H36.8333C33.0719 23.4375 29.8005 26.0145 28.9201 29.6708L25.4047 44.2708H19.5318C18.7821 44.2708 18.0458 44.3284 17.3272 44.4394L21.3234 27.8422ZM54.6347 106.771H89.8524C92.0103 106.771 93.7592 105.022 93.7592 102.865C93.7592 100.707 92.0103 98.9583 89.8524 98.9583H54.6936V105.469C54.6936 105.908 54.6738 106.342 54.6347 106.771ZM29.9507 75.5208C33.5469 75.5208 36.4621 72.6063 36.4621 69.0104C36.4621 65.4146 33.5469 62.5 29.9507 62.5C26.3546 62.5 23.4393 65.4146 23.4393 69.0104C23.4393 72.6063 26.3546 75.5208 29.9507 75.5208ZM10.4165 58.5938C10.4165 53.5599 14.4979 49.4792 19.5325 49.4792H40.369C45.4035 49.4792 49.4849 53.5599 49.4849 58.5938V105.469C49.4849 110.503 45.4035 114.583 40.369 114.583H19.5324C14.4979 114.583 10.4165 110.503 10.4165 105.469V58.5938ZM19.5325 57.2917C18.8132 57.2917 18.2302 57.8745 18.2302 58.5938V105.469C18.2302 106.188 18.8132 106.771 19.5324 106.771H40.369C41.0882 106.771 41.6712 106.188 41.6712 105.469V58.5938C41.6712 57.8745 41.0882 57.2917 40.369 57.2917H19.5325Z" fill="#389731"/>
</svg>
