<svg width="125" height="125" viewBox="0 0 125 125" fill="none" xmlns="http://www.w3.org/2000/svg">
<path d="M109.375 32.5521C109.375 23.2035 101.796 15.625 92.4479 15.625H32.5521C23.2035 15.625 15.625 23.2035 15.625 32.5521V92.4479C15.625 101.796 23.2035 109.375 32.5521 109.375H57.2917V101.562H32.5521C27.5182 101.562 23.4375 97.4818 23.4375 92.4479V44.2708H101.562V58.6521C104.517 58.9182 107.212 60.0818 109.375 61.8677V32.5521ZM32.5521 23.4375H92.4479C97.4818 23.4375 101.562 27.5182 101.562 32.5521V36.4583H23.4375V32.5521C23.4375 27.5182 27.5182 23.4375 32.5521 23.4375ZM72.9167 78.125H70.3125C65.9979 78.125 62.5 81.6229 62.5 85.9375V93.75H75.5208V92.4479C75.5208 90.2906 77.2698 88.5417 79.4271 88.5417C81.5844 88.5417 83.3333 90.2906 83.3333 92.4479V93.75H98.9583V92.4479C98.9583 90.2906 100.707 88.5417 102.865 88.5417C105.022 88.5417 106.771 90.2906 106.771 92.4479V93.75H119.792V85.9375C119.792 81.6229 116.294 78.125 111.979 78.125H109.375V72.9167C109.375 67.8828 105.294 63.8021 100.26 63.8021H82.0312C76.9974 63.8021 72.9167 67.8828 72.9167 72.9167V78.125ZM80.7292 72.9167C80.7292 72.1974 81.312 71.6146 82.0312 71.6146H100.26C100.98 71.6146 101.562 72.1974 101.562 72.9167V78.125H80.7292V72.9167ZM62.5 111.979V101.562H75.5208V105.469C75.5208 107.626 77.2698 109.375 79.4271 109.375C81.5844 109.375 83.3333 107.626 83.3333 105.469V101.562H98.9583V105.469C98.9583 107.626 100.707 109.375 102.865 109.375C105.022 109.375 106.771 107.626 106.771 105.469V101.562H119.792V111.979C119.792 116.294 116.294 119.792 111.979 119.792H70.3125C65.9979 119.792 62.5 116.294 62.5 111.979Z" fill="#389731"/>
</svg>
