<svg width="125" height="125" viewBox="0 0 125 125" fill="none" xmlns="http://www.w3.org/2000/svg">
<path d="M114.583 62.5C114.583 33.7352 91.2644 10.4167 62.4998 10.4167C33.735 10.4167 10.4165 33.7352 10.4165 62.5C10.4165 70.9391 12.4288 79.0938 16.2218 86.4177L10.661 106.329C10.3409 107.473 10.3408 108.685 10.6608 109.831C11.6279 113.294 15.2192 115.318 18.6823 114.351L38.6085 108.792C45.926 112.576 54.0712 114.583 62.4998 114.583C63.8686 114.583 65.2248 114.531 66.567 114.427C64.405 112.145 62.5576 109.563 61.0936 106.749C53.954 106.527 47.0991 104.61 40.9743 101.195L39.5704 100.413L18.8069 106.205L24.6023 85.4542L23.8177 84.0495C20.1705 77.5177 18.229 70.1542 18.229 62.5C18.229 38.0499 38.0497 18.2292 62.4998 18.2292C86.4795 18.2292 106.006 37.2945 106.749 61.0938C109.563 62.5578 112.145 64.4052 114.427 66.5672C114.531 65.225 114.583 63.8688 114.583 62.5ZM66.8592 85.7906C72.5967 84.3709 76.0051 78.4677 74.3655 72.7896L73.3337 69.2156C75.6217 67.224 78.2254 65.6089 81.0566 64.4615L83.6545 67.1953C87.7603 71.5156 94.6467 71.5172 98.754 67.1979L101.322 64.4974C104.159 65.6578 106.765 67.2891 109.052 69.2979L108.083 72.5839C106.396 78.3005 109.84 84.2641 115.635 85.6594L118.442 86.3354C118.697 87.8995 118.831 89.5063 118.831 91.1459C118.831 92.7125 118.709 94.25 118.475 95.7485L115.435 96.5005C109.698 97.9203 106.289 103.823 107.928 109.502L108.96 113.075C106.672 115.066 104.068 116.682 101.237 117.829L98.6394 115.096C94.5342 110.776 87.6472 110.775 83.5399 115.093L80.9707 117.795C78.1347 116.635 75.528 115.004 73.241 112.995L74.2113 109.707C75.8983 103.991 72.4535 98.0271 66.6592 96.6318L63.8498 95.9552C63.5941 94.3917 63.4613 92.7849 63.4613 91.1459C63.4613 89.5792 63.5827 88.0417 63.8165 86.5433L66.8592 85.7906ZM98.6962 91.1459C98.6962 86.8313 95.316 83.3334 91.1457 83.3334C86.9759 83.3334 83.5957 86.8313 83.5957 91.1459C83.5957 95.4604 86.9759 98.9584 91.1457 98.9584C95.316 98.9584 98.6962 95.4604 98.6962 91.1459Z" fill="#389731"/>
</svg>
