<svg width="19" height="20" viewBox="0 0 19 20" fill="none" xmlns="http://www.w3.org/2000/svg">
<path fill-rule="evenodd" clip-rule="evenodd" d="M9.84807 1.07581C10.0708 0.826138 10.3728 0.685883 10.6876 0.685883C11.0025 0.685883 11.3045 0.826138 11.5272 1.07581L18.6523 9.06646C18.8749 9.31621 19 9.65489 19 10.008C19 10.3612 18.8749 10.6998 18.6523 10.9496L11.5272 18.9402C11.3032 19.1828 11.0033 19.3171 10.6919 19.314C10.3806 19.311 10.0827 19.1709 9.86253 18.924C9.64236 18.6771 9.51747 18.3431 9.51476 17.9939C9.51206 17.6447 9.63175 17.3083 9.84807 17.0571L14.9461 11.3398L1.18752 11.3398C0.872566 11.3398 0.570517 11.1995 0.347815 10.9497C0.125111 10.7 0 10.3612 0 10.008C0 9.65482 0.125111 9.31607 0.347815 9.06632C0.570517 8.81656 0.872566 8.67625 1.18752 8.67625L14.9461 8.67625L9.84807 2.95894C9.62544 2.70919 9.50038 2.37051 9.50038 2.01737C9.50038 1.66423 9.62544 1.32555 9.84807 1.07581Z" fill="white"/>
</svg>
