<svg viewBox="0 0 1440 169" fill="none" xmlns="http://www.w3.org/2000/svg">
    <path d="M1440 103.88L1392.53 116.865C1345.05 129.849 1250.11 155.819 1155.16 151.518C1060.22 146.892 965.275 112.807 870.33 86.5934C775.385 60.8669 680.44 43.0126 585.495 69.226C490.549 94.9524 395.604 164.747 300.659 168.804C205.714 172.862 110.769 112.807 63.2968 82.211L0 51.9398V0H63.2968C110.769 0 205.714 0 300.659 0C395.604 0 490.549 0 585.495 0C680.44 0 775.385 0 870.33 0C965.275 0 1060.22 0 1155.16 0C1250.11 0 1345.05 0 1392.53 0H1440V103.88Z" fill="#E6F1DD"/>
</svg>