<svg width="1435" height="100" viewBox="0 0 1435 100" fill="none" xmlns="http://www.w3.org/2000/svg">
    <path d="M0 66.6667L47.8333 61.1111C95.6667 55.5556 191.333 44.4444 287 48.1597C382.667 51.7361 478.333 70.4861 574 79.618C669.667 88.8889 765.333 88.8889 861 79.618C956.667 70.4861 1052.33 51.7361 1148 37.0486C1243.67 22.2222 1339.33 11.1111 1387.17 5.55556L1435 0V100H1387.17C1339.33 100 1243.67 100 1148 100C1052.33 100 956.667 100 861 100C765.333 100 669.667 100 574 100C478.333 100 382.667 100 287 100C191.333 100 95.6667 100 47.8333 100H0V66.6667Z" fill="#0D3B09"/>
</svg>