<svg width="202" height="186" viewBox="0 0 202 186" fill="none" xmlns="http://www.w3.org/2000/svg">
<path d="M81.7333 61.2978L56.7089 42.6719L28.801 61.2978L55.2672 79.3558L71.9425 68.168V120.687H81.7333V61.2978Z" fill="#8FC867"/>
<path d="M57.2775 100.382L32.2531 81.7559L4.34521 100.382L30.8113 118.44L47.4867 107.252V120.84H57.2775V100.382Z" fill="#8FC867"/>
<path d="M121.505 61.2978L146.53 42.6719L174.437 61.2978L147.971 79.3558L131.296 68.168V120.687H121.505V61.2978Z" fill="#8FC867"/>
<path d="M145.96 100.382L170.985 81.7559L198.893 100.382L172.427 118.44L155.751 107.252V120.84H145.96V100.382Z" fill="#8FC867"/>
<path d="M148.52 20.9925L121.931 39.7711L105.438 28.4734V120.687H95.8093V28.4734L79.3159 39.7711L52.7275 20.9925L79.7425 0.839844L99.3639 16.4124L100.624 17.4597L101.883 16.4124L121.505 0.839844L148.52 20.9925Z" fill="#8FC867"/>
<path d="M32.9856 176.378H4.39808V127.486H32.106C41.8551 127.486 46.3998 133.79 46.3998 139.948C46.3998 146.032 42.6614 150.137 38.0434 151.163C43.2478 151.969 47.3527 156.954 47.3527 163.111C47.3527 170.221 42.5881 176.378 32.9856 176.378ZM29.2473 146.105C31.8128 146.105 33.572 144.712 33.572 142.293C33.572 139.948 31.8128 138.482 29.2473 138.482H17.0059V146.105H29.2473ZM29.6871 165.383C32.6924 165.383 34.525 163.844 34.525 161.205C34.525 158.786 32.7657 157.1 29.6871 157.1H17.0059V165.383H29.6871ZM66.828 176.378H54.2202V127.486H66.828V176.378ZM121.07 176.378H108.902L88.2315 148.084V176.378H75.6236V127.486H88.598L108.389 154.388V127.486H121.07V176.378ZM175.404 176.378H162.796V156.734H142.492V176.378H129.884V127.486H142.492V145.738H162.796V127.486H175.404V176.378ZM196.824 176.378H184.216V127.486H196.824V176.378Z" fill="#389731"/>
</svg>
