<svg width="182" height="44" viewBox="0 0 182 44" fill="none" xmlns="http://www.w3.org/2000/svg">
<path d="M85.1387 34.6997H68.6885V6.56566H84.6325C90.2425 6.56566 92.8576 10.1931 92.8576 13.7363C92.8576 17.2372 90.7065 19.5993 88.0491 20.1898C91.0439 20.6538 93.406 23.522 93.406 27.0651C93.406 31.1566 90.6643 34.6997 85.1387 34.6997ZM82.9875 17.2794C84.4638 17.2794 85.4761 16.478 85.4761 15.086C85.4761 13.7363 84.4638 12.8927 82.9875 12.8927H75.9435V17.2794H82.9875ZM83.2406 28.3727C84.97 28.3727 86.0245 27.4869 86.0245 25.9685C86.0245 24.5765 85.0122 23.6064 83.2406 23.6064H75.9435V28.3727H83.2406ZM104.613 34.6997H97.3577V6.56566H104.613V34.6997ZM135.825 34.6997H128.824L116.929 18.4182V34.6997H109.674V6.56566H117.14L128.528 22.0457V6.56566H135.825V34.6997ZM167.091 34.6997H159.836V23.3955H148.152V34.6997H140.897V6.56566H148.152V17.0685H159.836V6.56566H167.091V34.6997ZM179.416 34.6997H172.161V6.56566H179.416V34.6997Z" fill="#389731"/>
<path d="M23.5657 17.2701L15.9454 11.9878L7.44702 17.2701L15.5064 22.3912L20.5843 19.2184V34.1127H23.5657V17.2701Z" fill="#8FC867"/>
<path d="M16.1187 28.354L8.49838 23.0718L0 28.354L8.05934 33.4752L13.1372 30.3024V34.1559H16.1187V28.354Z" fill="#8FC867"/>
<path d="M35.677 17.2701L43.2973 11.9878L51.7957 17.2701L43.7363 22.3912L38.6584 19.2184V34.1127H35.677V17.2701Z" fill="#8FC867"/>
<path d="M43.124 28.354L50.7443 23.0718L59.2427 28.354L51.1834 33.4752L46.1055 30.3024V34.1559H43.124V28.354Z" fill="#8FC867"/>
<path d="M43.9033 5.83974L35.8068 11.1653L30.7843 7.96131V34.1128H27.8522V7.96131L22.8297 11.1653L14.7332 5.83974L22.9596 0.124512L28.9346 4.54083L29.3183 4.83785L29.7019 4.54083L35.6769 0.124512L43.9033 5.83974Z" fill="#8FC867"/>
</svg>
